<mxfile host="65bd71144e">
    <diagram id="hellFSsys1x8gBPK3HsO" name="Page-1">
        <mxGraphModel dx="299" dy="478" grid="1" gridSize="10" guides="1" tooltips="1" connect="1" arrows="1" fold="1" page="1" pageScale="1" pageWidth="850" pageHeight="1100" math="0" shadow="0">
            <root>
                <mxCell id="0"/>
                <mxCell id="1" parent="0"/>
                <mxCell id="5eZo46sto0S9a112TUNc-2" value="Actor" style="shape=umlActor;verticalLabelPosition=bottom;verticalAlign=top;html=1;outlineConnect=0;" parent="1" vertex="1">
                    <mxGeometry x="160" y="200" width="30" height="60" as="geometry"/>
                </mxCell>
                <mxCell id="5eZo46sto0S9a112TUNc-3" value="Actor" style="shape=umlActor;verticalLabelPosition=bottom;verticalAlign=top;html=1;outlineConnect=0;" parent="1" vertex="1">
                    <mxGeometry x="370" y="200" width="30" height="60" as="geometry"/>
                </mxCell>
                <mxCell id="5eZo46sto0S9a112TUNc-5" value="Use Case" style="ellipse;whiteSpace=wrap;html=1;" parent="1" vertex="1">
                    <mxGeometry x="210" y="195" width="140" height="70" as="geometry"/>
                </mxCell>
            </root>
        </mxGraphModel>
    </diagram>
</mxfile>